<?xml version="1.0" encoding="utf-8"?>
<!-- Generator: Adobe Illustrator 27.5.0, SVG Export Plug-In . SVG Version: 6.00 Build 0)  -->
<svg version="1.1" id="Calque_1" xmlns="http://www.w3.org/2000/svg" xmlns:xlink="http://www.w3.org/1999/xlink" x="0px" y="0px"
	 viewBox="0 0 23 28" enable-background="new 0 0 23 28" xml:space="preserve">
<g>
	<g>
		<radialGradient id="SVGID_1_" cx="19.4615" cy="4.8571" r="25.8661" gradientUnits="userSpaceOnUse">
			<stop  offset="0.3775" style="stop-color:#FFFFFF"/>
			<stop  offset="1" style="stop-color:#1D1D1B"/>
		</radialGradient>
		
			<linearGradient id="SVGID_00000054242683237206195240000007544085559619365808_" gradientUnits="userSpaceOnUse" x1="6.5066" y1="12.4444" x2="15.3012" y2="1.5521">
			<stop  offset="0" style="stop-color:#FFFFFF;stop-opacity:0.25"/>
			<stop  offset="1" style="stop-color:#FFFFFF;stop-opacity:0"/>
		</linearGradient>
		<path fill="url(#SVGID_1_)" stroke="url(#SVGID_00000054242683237206195240000007544085559619365808_)" stroke-width="1.0132" d="
			M17.3,7c0,1.8-0.6,3.3-1.9,4.5c-1.2,1.2-2.8,1.9-4.5,1.9c-1.8,0-3.3-0.6-4.5-1.9C5.2,10.2,4.6,8.7,4.6,7c0-1.8,0.6-3.3,1.9-4.5
			S9.2,0.6,11,0.6c1.8,0,3.3,0.6,4.5,1.9C16.7,3.7,17.3,5.2,17.3,7z"/>
	</g>
	<g>
		
			<radialGradient id="SVGID_00000085945934108942135560000006029782678283366809_" cx="19.2637" cy="4.9231" r="25.8661" gradientUnits="userSpaceOnUse">
			<stop  offset="0" style="stop-color:#FFFFFF"/>
			<stop  offset="1" style="stop-color:#1D1D1B"/>
		</radialGradient>
		<path fill="url(#SVGID_00000085945934108942135560000006029782678283366809_)" fill-opacity="0.2" d="M22.1,22.5
			c0,1.4-0.4,2.5-1.3,3.4c-0.9,0.8-2,1.2-3.4,1.2H4.7c-1.4,0-2.5-0.4-3.4-1.2c-0.9-0.8-1.3-2-1.3-3.4C0,22,0,21.5,0,21
			c0-0.5,0.1-1.1,0.2-1.7c0.1-0.6,0.2-1.2,0.4-1.7C0.8,17,1.1,16.5,1.4,16c0.3-0.5,0.7-1,1-1.4c0.4-0.4,0.9-0.7,1.5-1
			c0.6-0.2,1.2-0.3,1.9-0.3c0.3,0,0.5,0.1,1,0.4C7.2,14,7.6,14.2,8,14.5c0.3,0.2,0.8,0.4,1.4,0.6c0.5,0.2,1,0.3,1.5,0.3
			c0.1,0,0.2,0,0.2,0c0.5,0,1-0.1,1.6-0.2c0,0,0.1,0,0.2,0c0.6-0.2,1.1-0.4,1.4-0.6c0.4-0.3,0.8-0.5,1.1-0.7c0.5-0.3,0.8-0.4,1-0.4
			c0.7,0,1.3,0.1,1.9,0.3c0.6,0.2,1.1,0.6,1.5,1c0.4,0.4,0.8,0.8,1.1,1.4c0.3,0.5,0.5,1,0.7,1.6c0.2,0.5,0.3,1.1,0.4,1.7
			c0.1,0.6,0.2,1.2,0.2,1.7C22.1,21.5,22.1,22,22.1,22.5z"/>
	</g>
</g>
</svg>
