<?xml version="1.0" encoding="UTF-8"?>
<svg xmlns="http://www.w3.org/2000/svg" xmlns:xlink="http://www.w3.org/1999/xlink" viewBox="0 0 267.47 293.89">
  <defs>
    <style>
      .cls-1 {
        fill: url(#Dégradé_sans_nom_7-3);
      }

      .cls-2 {
        fill: url(#Dégradé_sans_nom_7-2);
      }

      .cls-3 {
        fill: url(#Dégradé_sans_nom_7);
      }
    </style>
    <linearGradient id="Dégradé_sans_nom_7" data-name="Dégradé sans nom 7" x1="60.77" y1="239.23" x2="178.13" y2="91.01" gradientUnits="userSpaceOnUse">
      <stop offset=".6" stop-color="#f75f46"/>
      <stop offset="1" stop-color="#ff8f71"/>
    </linearGradient>
    <linearGradient id="Dégradé_sans_nom_7-2" data-name="Dégradé sans nom 7" x1="54.65" y1="234.38" x2="172.01" y2="86.16" xlink:href="#Dégradé_sans_nom_7"/>
    <linearGradient id="Dégradé_sans_nom_7-3" data-name="Dégradé sans nom 7" x1="80.48" y1="254.83" x2="197.84" y2="106.61" xlink:href="#Dégradé_sans_nom_7"/>
  </defs>
  <g id="Calque_2" data-name="Calque 2">
    <rect width="267.47" height="293.89"/>
  </g>
  <g id="Calque_1" data-name="Calque 1">
    <path class="cls-3" d="m58.74,147.15c0-25.42-.01-50.83.03-76.25,0-1.98.17-4.02.66-5.93,1.83-7.13,7.79-11.53,15.64-11.72,1.83-.05,3.67-.01,5.5-.02,28.92,0,57.83,0,86.75-.03,1.27,0,2.35.25,3.28,1.18,10.26,10.3,20.54,20.58,30.81,30.88,2,2.01,3.95,4.07,5.95,6.08.97.97,1.39,2.1,1.39,3.48-.01,43.08-.02,86.16,0,129.24,0,9.52-5.61,14.25-11.29,15.96-1.53.46-3.2.61-4.8.62-13.12.05-26.25.03-39.37.03-25.87,0-51.75-.02-77.62.03-4.15,0-7.92-.86-11.17-3.53-4.19-3.44-5.74-8.02-5.74-13.27,0-25.58,0-51.16,0-76.75Zm106.33-87.69c-.37-.05-.49-.09-.62-.09-12.75.01-25.5.03-38.25.04-17.04.01-34.08,0-51.12.03-5.88.01-9.61,3.43-10.17,9.3-.17,1.78-.08,3.58-.08,5.37,0,49.37,0,98.74,0,148.12,0,1.21-.03,2.43.14,3.62.6,4.12,2.78,7.04,6.85,8.18,1.57.44,3.29.44,4.95.44,37.67.02,75.33.02,113,.01,1.25,0,2.5.02,3.75-.04,4.47-.22,7.86-3,8.67-7.41.4-2.15.4-4.39.41-6.58.02-37.5.01-75,0-112.5,0-3.62,0-7.24,0-11-.51,0-.96,0-1.41,0-6.5,0-13,.02-19.5-.02-1.49,0-3.01-.09-4.47-.39-7.09-1.46-12.13-7.67-12.2-15.05-.06-6.5,0-13,.02-19.5,0-.82,0-1.64,0-2.52Zm32.72,31.3c-8.92-8.91-17.73-17.7-26.52-26.49,0-.02-.08.09-.08.19.02,5.83,0,11.66.1,17.48.04,2.13.94,4.02,2.39,5.63,2.14,2.37,4.88,3.19,7.96,3.19,4.16,0,8.33,0,12.49,0,1.19,0,2.38,0,3.66,0Z"/>
    <path class="cls-2" d="m130.67,162.58c0-1.92-.03-3.83,0-5.75.05-2.53,1.03-3.53,3.58-3.61,6.98-.22,12.12-3.6,15.68-9.38,4.72-7.64,3.08-17.19-3.7-23.35-10.98-9.97-27.68-3.56-30.83,9.69-.27,1.12-.27,2.31-.45,3.46-.13.81-.21,1.68-.57,2.4-.59,1.19-2.16,1.73-3.46,1.39-1.22-.32-2.18-1.59-2.19-3.01-.03-5.9,2.02-11.07,5.67-15.64,8.28-10.37,23.35-12.35,34.05-4.52,10.91,7.99,13.56,23.29,5.83,34.35-4.01,5.73-9.47,9.39-16.51,10.38-.77.11-1.03.42-1.02,1.21.05,2.83.05,5.66,0,8.5-.03,1.64-.85,2.63-2.31,3.01-1.85.49-3.62-.71-3.7-2.63-.09-2.16-.02-4.33-.02-6.49-.02,0-.04,0-.06,0Z"/>
    <path class="cls-1" d="m133.75,196.94c-5.14,0-9.4-4.26-9.36-9.36.04-5.23,4.16-9.38,9.34-9.39,5.26,0,9.41,4.26,9.36,9.62-.04,4.96-4.3,9.13-9.34,9.13Zm-.05-6.25c1.69,0,3.19-1.4,3.2-3,.01-1.73-1.52-3.26-3.26-3.26-1.73,0-3.05,1.34-3.05,3.09,0,1.81,1.34,3.18,3.11,3.18Z"/>
  </g>
</svg>